G04 #@! TF.GenerationSoftware,KiCad,Pcbnew,(5.0.0-rc2-dev-222-g3b0a758)*
G04 #@! TF.CreationDate,2018-06-01T00:26:23+02:00*
G04 #@! TF.ProjectId,BelgradeShittyAddonAdapter,42656C67726164655368697474794164,rev?*
G04 #@! TF.SameCoordinates,Original*
G04 #@! TF.FileFunction,Legend,Bot*
G04 #@! TF.FilePolarity,Positive*
%FSLAX46Y46*%
G04 Gerber Fmt 4.6, Leading zero omitted, Abs format (unit mm)*
G04 Created by KiCad (PCBNEW (5.0.0-rc2-dev-222-g3b0a758)) date Friday, 01 June 2018 at 00:26:23*
%MOMM*%
%LPD*%
G01*
G04 APERTURE LIST*
%ADD10C,0.250000*%
%ADD11C,0.200000*%
G04 APERTURE END LIST*
D10*
X96955857Y-85530571D02*
X95884428Y-85530571D01*
X96527285Y-84887714D02*
X96955857Y-86816285D01*
X96027285Y-86173428D02*
X97098714Y-86173428D01*
X96455857Y-86816285D02*
X96027285Y-84887714D01*
X95384428Y-86530571D02*
X95384428Y-85030571D01*
X95384428Y-85602000D02*
X95241571Y-85530571D01*
X94955857Y-85530571D01*
X94813000Y-85602000D01*
X94741571Y-85673428D01*
X94670142Y-85816285D01*
X94670142Y-86244857D01*
X94741571Y-86387714D01*
X94813000Y-86459142D01*
X94955857Y-86530571D01*
X95241571Y-86530571D01*
X95384428Y-86459142D01*
X93384428Y-86530571D02*
X93384428Y-85744857D01*
X93455857Y-85602000D01*
X93598714Y-85530571D01*
X93884428Y-85530571D01*
X94027285Y-85602000D01*
X93384428Y-86459142D02*
X93527285Y-86530571D01*
X93884428Y-86530571D01*
X94027285Y-86459142D01*
X94098714Y-86316285D01*
X94098714Y-86173428D01*
X94027285Y-86030571D01*
X93884428Y-85959142D01*
X93527285Y-85959142D01*
X93384428Y-85887714D01*
X92027285Y-86530571D02*
X92027285Y-85030571D01*
X92027285Y-86459142D02*
X92170142Y-86530571D01*
X92455857Y-86530571D01*
X92598714Y-86459142D01*
X92670142Y-86387714D01*
X92741571Y-86244857D01*
X92741571Y-85816285D01*
X92670142Y-85673428D01*
X92598714Y-85602000D01*
X92455857Y-85530571D01*
X92170142Y-85530571D01*
X92027285Y-85602000D01*
X90670142Y-85530571D02*
X90670142Y-86744857D01*
X90741571Y-86887714D01*
X90813000Y-86959142D01*
X90955857Y-87030571D01*
X91170142Y-87030571D01*
X91313000Y-86959142D01*
X90670142Y-86459142D02*
X90813000Y-86530571D01*
X91098714Y-86530571D01*
X91241571Y-86459142D01*
X91313000Y-86387714D01*
X91384428Y-86244857D01*
X91384428Y-85816285D01*
X91313000Y-85673428D01*
X91241571Y-85602000D01*
X91098714Y-85530571D01*
X90813000Y-85530571D01*
X90670142Y-85602000D01*
X89384428Y-86459142D02*
X89527285Y-86530571D01*
X89813000Y-86530571D01*
X89955857Y-86459142D01*
X90027285Y-86316285D01*
X90027285Y-85744857D01*
X89955857Y-85602000D01*
X89813000Y-85530571D01*
X89527285Y-85530571D01*
X89384428Y-85602000D01*
X89313000Y-85744857D01*
X89313000Y-85887714D01*
X90027285Y-86030571D01*
X88455857Y-86530571D02*
X88598714Y-86459142D01*
X88670142Y-86316285D01*
X88670142Y-85030571D01*
X87884428Y-86530571D02*
X87884428Y-85530571D01*
X87884428Y-85030571D02*
X87955857Y-85102000D01*
X87884428Y-85173428D01*
X87813000Y-85102000D01*
X87884428Y-85030571D01*
X87884428Y-85173428D01*
X87384428Y-85530571D02*
X86813000Y-85530571D01*
X87170142Y-86530571D02*
X87170142Y-85244857D01*
X87098714Y-85102000D01*
X86955857Y-85030571D01*
X86813000Y-85030571D01*
X85741571Y-86459142D02*
X85884428Y-86530571D01*
X86170142Y-86530571D01*
X86313000Y-86459142D01*
X86384428Y-86316285D01*
X86384428Y-85744857D01*
X86313000Y-85602000D01*
X86170142Y-85530571D01*
X85884428Y-85530571D01*
X85741571Y-85602000D01*
X85670142Y-85744857D01*
X85670142Y-85887714D01*
X86384428Y-86030571D01*
D11*
X99797142Y-78704285D02*
X99868571Y-78632857D01*
X100011428Y-78561428D01*
X100154285Y-78561428D01*
X100297142Y-78632857D01*
X100368571Y-78704285D01*
X100440000Y-78847142D01*
X100440000Y-78990000D01*
X100368571Y-79132857D01*
X100297142Y-79204285D01*
X100154285Y-79275714D01*
X100011428Y-79275714D01*
X99868571Y-79204285D01*
X99797142Y-79132857D01*
X99797142Y-78561428D02*
X99797142Y-79132857D01*
X99725714Y-79204285D01*
X99654285Y-79204285D01*
X99511428Y-79132857D01*
X99440000Y-78990000D01*
X99440000Y-78632857D01*
X99582857Y-78418571D01*
X99797142Y-78275714D01*
X100082857Y-78204285D01*
X100368571Y-78275714D01*
X100582857Y-78418571D01*
X100725714Y-78632857D01*
X100797142Y-78918571D01*
X100725714Y-79204285D01*
X100582857Y-79418571D01*
X100368571Y-79561428D01*
X100082857Y-79632857D01*
X99797142Y-79561428D01*
X99582857Y-79418571D01*
X99011428Y-78418571D02*
X98440000Y-78418571D01*
X98797142Y-77918571D02*
X98797142Y-79204285D01*
X98725714Y-79347142D01*
X98582857Y-79418571D01*
X98440000Y-79418571D01*
X97940000Y-79418571D02*
X97940000Y-77918571D01*
X97297142Y-79418571D02*
X97297142Y-78632857D01*
X97368571Y-78490000D01*
X97511428Y-78418571D01*
X97725714Y-78418571D01*
X97868571Y-78490000D01*
X97940000Y-78561428D01*
X96368571Y-79418571D02*
X96511428Y-79347142D01*
X96582857Y-79275714D01*
X96654285Y-79132857D01*
X96654285Y-78704285D01*
X96582857Y-78561428D01*
X96511428Y-78490000D01*
X96368571Y-78418571D01*
X96154285Y-78418571D01*
X96011428Y-78490000D01*
X95940000Y-78561428D01*
X95868571Y-78704285D01*
X95868571Y-79132857D01*
X95940000Y-79275714D01*
X96011428Y-79347142D01*
X96154285Y-79418571D01*
X96368571Y-79418571D01*
X95225714Y-79418571D02*
X95225714Y-78418571D01*
X95225714Y-78561428D02*
X95154285Y-78490000D01*
X95011428Y-78418571D01*
X94797142Y-78418571D01*
X94654285Y-78490000D01*
X94582857Y-78632857D01*
X94582857Y-79418571D01*
X94582857Y-78632857D02*
X94511428Y-78490000D01*
X94368571Y-78418571D01*
X94154285Y-78418571D01*
X94011428Y-78490000D01*
X93940000Y-78632857D01*
X93940000Y-79418571D01*
X92582857Y-79418571D02*
X92582857Y-78632857D01*
X92654285Y-78490000D01*
X92797142Y-78418571D01*
X93082857Y-78418571D01*
X93225714Y-78490000D01*
X92582857Y-79347142D02*
X92725714Y-79418571D01*
X93082857Y-79418571D01*
X93225714Y-79347142D01*
X93297142Y-79204285D01*
X93297142Y-79061428D01*
X93225714Y-78918571D01*
X93082857Y-78847142D01*
X92725714Y-78847142D01*
X92582857Y-78775714D01*
X91940000Y-79347142D02*
X91797142Y-79418571D01*
X91511428Y-79418571D01*
X91368571Y-79347142D01*
X91297142Y-79204285D01*
X91297142Y-79132857D01*
X91368571Y-78990000D01*
X91511428Y-78918571D01*
X91725714Y-78918571D01*
X91868571Y-78847142D01*
X91940000Y-78704285D01*
X91940000Y-78632857D01*
X91868571Y-78490000D01*
X91725714Y-78418571D01*
X91511428Y-78418571D01*
X91368571Y-78490000D01*
X90868571Y-78418571D02*
X90297142Y-78418571D01*
X90654285Y-79418571D02*
X90654285Y-78132857D01*
X90582857Y-77990000D01*
X90440000Y-77918571D01*
X90297142Y-77918571D01*
X89582857Y-79418571D02*
X89725714Y-79347142D01*
X89797142Y-79204285D01*
X89797142Y-77918571D01*
X88368571Y-78418571D02*
X88368571Y-79418571D01*
X89011428Y-78418571D02*
X89011428Y-79204285D01*
X88940000Y-79347142D01*
X88797142Y-79418571D01*
X88582857Y-79418571D01*
X88440000Y-79347142D01*
X88368571Y-79275714D01*
X87654285Y-79418571D02*
X87654285Y-78418571D01*
X87654285Y-78561428D02*
X87582857Y-78490000D01*
X87440000Y-78418571D01*
X87225714Y-78418571D01*
X87082857Y-78490000D01*
X87011428Y-78632857D01*
X87011428Y-79418571D01*
X87011428Y-78632857D02*
X86940000Y-78490000D01*
X86797142Y-78418571D01*
X86582857Y-78418571D01*
X86440000Y-78490000D01*
X86368571Y-78632857D01*
X86368571Y-79418571D01*
X85654285Y-79418571D02*
X85654285Y-78418571D01*
X85654285Y-78561428D02*
X85582857Y-78490000D01*
X85440000Y-78418571D01*
X85225714Y-78418571D01*
X85082857Y-78490000D01*
X85011428Y-78632857D01*
X85011428Y-79418571D01*
X85011428Y-78632857D02*
X84940000Y-78490000D01*
X84797142Y-78418571D01*
X84582857Y-78418571D01*
X84440000Y-78490000D01*
X84368571Y-78632857D01*
X84368571Y-79418571D01*
X83082857Y-79347142D02*
X83225714Y-79418571D01*
X83511428Y-79418571D01*
X83654285Y-79347142D01*
X83725714Y-79204285D01*
X83725714Y-78632857D01*
X83654285Y-78490000D01*
X83511428Y-78418571D01*
X83225714Y-78418571D01*
X83082857Y-78490000D01*
X83011428Y-78632857D01*
X83011428Y-78775714D01*
X83725714Y-78918571D01*
X82368571Y-79418571D02*
X82368571Y-78418571D01*
X82368571Y-78704285D02*
X82297142Y-78561428D01*
X82225714Y-78490000D01*
X82082857Y-78418571D01*
X81940000Y-78418571D01*
M02*
