G04 #@! TF.GenerationSoftware,KiCad,Pcbnew,(5.0.0-rc2-dev-222-g3b0a758)*
G04 #@! TF.CreationDate,2018-06-01T00:26:23+02:00*
G04 #@! TF.ProjectId,BelgradeShittyAddonAdapter,42656C67726164655368697474794164,rev?*
G04 #@! TF.SameCoordinates,Original*
G04 #@! TF.FileFunction,Legend,Top*
G04 #@! TF.FilePolarity,Positive*
%FSLAX46Y46*%
G04 Gerber Fmt 4.6, Leading zero omitted, Abs format (unit mm)*
G04 Created by KiCad (PCBNEW (5.0.0-rc2-dev-222-g3b0a758)) date Friday, 01 June 2018 at 00:26:23*
%MOMM*%
%LPD*%
G01*
G04 APERTURE LIST*
%ADD10C,0.300000*%
G04 APERTURE END LIST*
D10*
X95912857Y-83030714D02*
X95841428Y-83245000D01*
X95841428Y-83602142D01*
X95912857Y-83745000D01*
X95984285Y-83816428D01*
X96127142Y-83887857D01*
X96270000Y-83887857D01*
X96412857Y-83816428D01*
X96484285Y-83745000D01*
X96555714Y-83602142D01*
X96627142Y-83316428D01*
X96698571Y-83173571D01*
X96770000Y-83102142D01*
X96912857Y-83030714D01*
X97055714Y-83030714D01*
X97198571Y-83102142D01*
X97270000Y-83173571D01*
X97341428Y-83316428D01*
X97341428Y-83673571D01*
X97270000Y-83887857D01*
X95984285Y-85387857D02*
X95912857Y-85316428D01*
X95841428Y-85102142D01*
X95841428Y-84959285D01*
X95912857Y-84745000D01*
X96055714Y-84602142D01*
X96198571Y-84530714D01*
X96484285Y-84459285D01*
X96698571Y-84459285D01*
X96984285Y-84530714D01*
X97127142Y-84602142D01*
X97270000Y-84745000D01*
X97341428Y-84959285D01*
X97341428Y-85102142D01*
X97270000Y-85316428D01*
X97198571Y-85387857D01*
X95841428Y-86745000D02*
X95841428Y-86030714D01*
X97341428Y-86030714D01*
X93372857Y-83030714D02*
X93301428Y-83245000D01*
X93301428Y-83602142D01*
X93372857Y-83745000D01*
X93444285Y-83816428D01*
X93587142Y-83887857D01*
X93730000Y-83887857D01*
X93872857Y-83816428D01*
X93944285Y-83745000D01*
X94015714Y-83602142D01*
X94087142Y-83316428D01*
X94158571Y-83173571D01*
X94230000Y-83102142D01*
X94372857Y-83030714D01*
X94515714Y-83030714D01*
X94658571Y-83102142D01*
X94730000Y-83173571D01*
X94801428Y-83316428D01*
X94801428Y-83673571D01*
X94730000Y-83887857D01*
X93301428Y-84530714D02*
X94801428Y-84530714D01*
X94801428Y-84887857D01*
X94730000Y-85102142D01*
X94587142Y-85245000D01*
X94444285Y-85316428D01*
X94158571Y-85387857D01*
X93944285Y-85387857D01*
X93658571Y-85316428D01*
X93515714Y-85245000D01*
X93372857Y-85102142D01*
X93301428Y-84887857D01*
X93301428Y-84530714D01*
X93730000Y-85959285D02*
X93730000Y-86673571D01*
X93301428Y-85816428D02*
X94801428Y-86316428D01*
X93301428Y-86816428D01*
X89721428Y-82959285D02*
X89721428Y-83887857D01*
X89150000Y-83387857D01*
X89150000Y-83602142D01*
X89078571Y-83745000D01*
X89007142Y-83816428D01*
X88864285Y-83887857D01*
X88507142Y-83887857D01*
X88364285Y-83816428D01*
X88292857Y-83745000D01*
X88221428Y-83602142D01*
X88221428Y-83173571D01*
X88292857Y-83030714D01*
X88364285Y-82959285D01*
X89221428Y-84387857D02*
X88221428Y-84745000D01*
X89221428Y-85102142D01*
X89721428Y-85530714D02*
X89721428Y-86459285D01*
X89150000Y-85959285D01*
X89150000Y-86173571D01*
X89078571Y-86316428D01*
X89007142Y-86387857D01*
X88864285Y-86459285D01*
X88507142Y-86459285D01*
X88364285Y-86387857D01*
X88292857Y-86316428D01*
X88221428Y-86173571D01*
X88221428Y-85745000D01*
X88292857Y-85602142D01*
X88364285Y-85530714D01*
X87110000Y-83887857D02*
X87181428Y-83745000D01*
X87181428Y-83530714D01*
X87110000Y-83316428D01*
X86967142Y-83173571D01*
X86824285Y-83102142D01*
X86538571Y-83030714D01*
X86324285Y-83030714D01*
X86038571Y-83102142D01*
X85895714Y-83173571D01*
X85752857Y-83316428D01*
X85681428Y-83530714D01*
X85681428Y-83673571D01*
X85752857Y-83887857D01*
X85824285Y-83959285D01*
X86324285Y-83959285D01*
X86324285Y-83673571D01*
X85681428Y-84602142D02*
X87181428Y-84602142D01*
X85681428Y-85459285D01*
X87181428Y-85459285D01*
X85681428Y-86173571D02*
X87181428Y-86173571D01*
X87181428Y-86530714D01*
X87110000Y-86745000D01*
X86967142Y-86887857D01*
X86824285Y-86959285D01*
X86538571Y-87030714D01*
X86324285Y-87030714D01*
X86038571Y-86959285D01*
X85895714Y-86887857D01*
X85752857Y-86745000D01*
X85681428Y-86530714D01*
X85681428Y-86173571D01*
X90650714Y-76807142D02*
X90865000Y-76878571D01*
X91222142Y-76878571D01*
X91365000Y-76807142D01*
X91436428Y-76735714D01*
X91507857Y-76592857D01*
X91507857Y-76450000D01*
X91436428Y-76307142D01*
X91365000Y-76235714D01*
X91222142Y-76164285D01*
X90936428Y-76092857D01*
X90793571Y-76021428D01*
X90722142Y-75950000D01*
X90650714Y-75807142D01*
X90650714Y-75664285D01*
X90722142Y-75521428D01*
X90793571Y-75450000D01*
X90936428Y-75378571D01*
X91293571Y-75378571D01*
X91507857Y-75450000D01*
X93007857Y-76735714D02*
X92936428Y-76807142D01*
X92722142Y-76878571D01*
X92579285Y-76878571D01*
X92365000Y-76807142D01*
X92222142Y-76664285D01*
X92150714Y-76521428D01*
X92079285Y-76235714D01*
X92079285Y-76021428D01*
X92150714Y-75735714D01*
X92222142Y-75592857D01*
X92365000Y-75450000D01*
X92579285Y-75378571D01*
X92722142Y-75378571D01*
X92936428Y-75450000D01*
X93007857Y-75521428D01*
X94365000Y-76878571D02*
X93650714Y-76878571D01*
X93650714Y-75378571D01*
X90650714Y-74267142D02*
X90865000Y-74338571D01*
X91222142Y-74338571D01*
X91365000Y-74267142D01*
X91436428Y-74195714D01*
X91507857Y-74052857D01*
X91507857Y-73910000D01*
X91436428Y-73767142D01*
X91365000Y-73695714D01*
X91222142Y-73624285D01*
X90936428Y-73552857D01*
X90793571Y-73481428D01*
X90722142Y-73410000D01*
X90650714Y-73267142D01*
X90650714Y-73124285D01*
X90722142Y-72981428D01*
X90793571Y-72910000D01*
X90936428Y-72838571D01*
X91293571Y-72838571D01*
X91507857Y-72910000D01*
X92150714Y-74338571D02*
X92150714Y-72838571D01*
X92507857Y-72838571D01*
X92722142Y-72910000D01*
X92865000Y-73052857D01*
X92936428Y-73195714D01*
X93007857Y-73481428D01*
X93007857Y-73695714D01*
X92936428Y-73981428D01*
X92865000Y-74124285D01*
X92722142Y-74267142D01*
X92507857Y-74338571D01*
X92150714Y-74338571D01*
X93579285Y-73910000D02*
X94293571Y-73910000D01*
X93436428Y-74338571D02*
X93936428Y-72838571D01*
X94436428Y-74338571D01*
X81466428Y-75450000D02*
X81323571Y-75378571D01*
X81109285Y-75378571D01*
X80895000Y-75450000D01*
X80752142Y-75592857D01*
X80680714Y-75735714D01*
X80609285Y-76021428D01*
X80609285Y-76235714D01*
X80680714Y-76521428D01*
X80752142Y-76664285D01*
X80895000Y-76807142D01*
X81109285Y-76878571D01*
X81252142Y-76878571D01*
X81466428Y-76807142D01*
X81537857Y-76735714D01*
X81537857Y-76235714D01*
X81252142Y-76235714D01*
X82180714Y-76878571D02*
X82180714Y-75378571D01*
X83037857Y-76878571D01*
X83037857Y-75378571D01*
X83752142Y-76878571D02*
X83752142Y-75378571D01*
X84109285Y-75378571D01*
X84323571Y-75450000D01*
X84466428Y-75592857D01*
X84537857Y-75735714D01*
X84609285Y-76021428D01*
X84609285Y-76235714D01*
X84537857Y-76521428D01*
X84466428Y-76664285D01*
X84323571Y-76807142D01*
X84109285Y-76878571D01*
X83752142Y-76878571D01*
X81049285Y-72838571D02*
X81977857Y-72838571D01*
X81477857Y-73410000D01*
X81692142Y-73410000D01*
X81835000Y-73481428D01*
X81906428Y-73552857D01*
X81977857Y-73695714D01*
X81977857Y-74052857D01*
X81906428Y-74195714D01*
X81835000Y-74267142D01*
X81692142Y-74338571D01*
X81263571Y-74338571D01*
X81120714Y-74267142D01*
X81049285Y-74195714D01*
X82477857Y-73338571D02*
X82835000Y-74338571D01*
X83192142Y-73338571D01*
X83620714Y-72838571D02*
X84549285Y-72838571D01*
X84049285Y-73410000D01*
X84263571Y-73410000D01*
X84406428Y-73481428D01*
X84477857Y-73552857D01*
X84549285Y-73695714D01*
X84549285Y-74052857D01*
X84477857Y-74195714D01*
X84406428Y-74267142D01*
X84263571Y-74338571D01*
X83835000Y-74338571D01*
X83692142Y-74267142D01*
X83620714Y-74195714D01*
M02*
