G04 #@! TF.GenerationSoftware,KiCad,Pcbnew,(5.0.0-rc2-dev-222-g3b0a758)*
G04 #@! TF.CreationDate,2018-06-01T00:26:23+02:00*
G04 #@! TF.ProjectId,BelgradeShittyAddonAdapter,42656C67726164655368697474794164,rev?*
G04 #@! TF.SameCoordinates,Original*
G04 #@! TF.FileFunction,Copper,L1,Top,Signal*
G04 #@! TF.FilePolarity,Positive*
%FSLAX46Y46*%
G04 Gerber Fmt 4.6, Leading zero omitted, Abs format (unit mm)*
G04 Created by KiCad (PCBNEW (5.0.0-rc2-dev-222-g3b0a758)) date Friday, 01 June 2018 at 00:26:23*
%MOMM*%
%LPD*%
G01*
G04 APERTURE LIST*
%ADD10C,0.010000*%
%ADD11C,1.350000*%
%ADD12O,1.350000X1.350000*%
%ADD13O,1.700000X1.700000*%
%ADD14C,1.700000*%
%ADD15C,0.250000*%
G04 APERTURE END LIST*
D10*
G36*
X98917434Y-72745645D02*
X98992793Y-72745956D01*
X99048845Y-72746800D01*
X99088638Y-72748438D01*
X99115217Y-72751138D01*
X99131630Y-72755162D01*
X99140924Y-72760776D01*
X99146145Y-72768244D01*
X99148779Y-72774175D01*
X99154476Y-72794608D01*
X99163787Y-72836063D01*
X99175897Y-72894551D01*
X99189990Y-72966082D01*
X99205253Y-73046666D01*
X99212863Y-73087982D01*
X99228263Y-73170769D01*
X99242763Y-73245735D01*
X99255583Y-73309068D01*
X99265938Y-73356956D01*
X99273047Y-73385587D01*
X99275168Y-73391541D01*
X99289098Y-73401010D01*
X99322094Y-73417841D01*
X99369589Y-73440087D01*
X99427018Y-73465796D01*
X99489814Y-73493021D01*
X99553411Y-73519813D01*
X99613244Y-73544222D01*
X99664745Y-73564299D01*
X99703350Y-73578096D01*
X99724492Y-73583663D01*
X99725335Y-73583694D01*
X99739315Y-73576754D01*
X99771159Y-73557297D01*
X99817855Y-73527280D01*
X99876396Y-73488659D01*
X99943771Y-73443393D01*
X99998820Y-73405894D01*
X100070862Y-73356906D01*
X100136329Y-73313089D01*
X100192217Y-73276398D01*
X100235519Y-73248787D01*
X100263230Y-73232213D01*
X100272006Y-73228200D01*
X100285604Y-73236956D01*
X100313576Y-73261200D01*
X100352921Y-73297889D01*
X100400637Y-73343982D01*
X100453723Y-73396439D01*
X100509177Y-73452219D01*
X100563999Y-73508280D01*
X100615186Y-73561583D01*
X100659739Y-73609085D01*
X100694655Y-73647746D01*
X100716932Y-73674526D01*
X100723700Y-73685858D01*
X100717874Y-73701985D01*
X100700027Y-73733928D01*
X100669601Y-73782543D01*
X100626038Y-73848685D01*
X100568781Y-73933210D01*
X100497274Y-74036974D01*
X100461996Y-74087734D01*
X100429255Y-74136351D01*
X100402832Y-74178643D01*
X100385741Y-74209585D01*
X100380800Y-74223125D01*
X100385603Y-74239290D01*
X100398737Y-74274162D01*
X100418286Y-74323203D01*
X100442336Y-74381877D01*
X100468972Y-74445649D01*
X100496279Y-74509981D01*
X100522341Y-74570338D01*
X100545245Y-74622184D01*
X100563076Y-74660982D01*
X100573917Y-74682196D01*
X100575553Y-74684487D01*
X100589390Y-74688589D01*
X100624662Y-74696540D01*
X100677820Y-74707611D01*
X100745314Y-74721074D01*
X100823597Y-74736202D01*
X100876506Y-74746195D01*
X100960519Y-74762066D01*
X101036703Y-74776730D01*
X101101334Y-74789447D01*
X101150685Y-74799478D01*
X101181030Y-74806084D01*
X101188579Y-74808102D01*
X101194157Y-74814295D01*
X101198479Y-74829865D01*
X101201690Y-74857498D01*
X101203933Y-74899879D01*
X101205353Y-74959695D01*
X101206094Y-75039632D01*
X101206299Y-75138295D01*
X101206181Y-75237636D01*
X101205695Y-75314513D01*
X101204643Y-75371858D01*
X101202827Y-75412607D01*
X101200051Y-75439695D01*
X101196115Y-75456055D01*
X101190824Y-75464622D01*
X101184075Y-75468302D01*
X101162063Y-75473413D01*
X101122100Y-75481457D01*
X101071258Y-75491034D01*
X101047550Y-75495321D01*
X100923801Y-75517681D01*
X100823073Y-75536531D01*
X100743298Y-75552335D01*
X100682409Y-75565557D01*
X100638339Y-75576661D01*
X100609020Y-75586110D01*
X100592385Y-75594369D01*
X100588009Y-75598416D01*
X100579299Y-75615233D01*
X100563362Y-75650782D01*
X100542022Y-75700589D01*
X100517098Y-75760178D01*
X100490411Y-75825074D01*
X100463782Y-75890802D01*
X100439034Y-75952887D01*
X100417985Y-76006853D01*
X100402458Y-76048224D01*
X100394274Y-76072527D01*
X100393464Y-76076526D01*
X100400376Y-76089384D01*
X100419738Y-76120038D01*
X100449520Y-76165412D01*
X100487690Y-76222432D01*
X100532219Y-76288026D01*
X100558600Y-76326520D01*
X100605945Y-76396370D01*
X100647988Y-76460297D01*
X100682672Y-76515018D01*
X100707942Y-76557248D01*
X100721740Y-76583704D01*
X100723700Y-76590169D01*
X100714866Y-76605936D01*
X100689770Y-76636928D01*
X100650515Y-76680828D01*
X100599210Y-76735319D01*
X100537957Y-76798083D01*
X100502686Y-76833408D01*
X100433690Y-76901797D01*
X100380215Y-76954081D01*
X100339900Y-76992192D01*
X100310384Y-77018064D01*
X100289305Y-77033629D01*
X100274303Y-77040821D01*
X100263016Y-77041572D01*
X100253084Y-77037817D01*
X100253038Y-77037792D01*
X100234193Y-77026148D01*
X100198068Y-77002462D01*
X100148264Y-76969149D01*
X100088386Y-76928622D01*
X100022038Y-76883298D01*
X100004983Y-76871583D01*
X99938693Y-76826504D01*
X99878898Y-76786798D01*
X99828937Y-76754603D01*
X99792146Y-76732060D01*
X99771865Y-76721307D01*
X99769542Y-76720700D01*
X99752001Y-76726249D01*
X99717705Y-76741191D01*
X99672310Y-76762967D01*
X99640429Y-76779109D01*
X99589464Y-76803833D01*
X99548639Y-76820544D01*
X99522612Y-76827470D01*
X99516212Y-76826392D01*
X99508727Y-76812253D01*
X99492899Y-76777593D01*
X99470015Y-76725395D01*
X99441363Y-76658639D01*
X99408229Y-76580309D01*
X99371901Y-76493387D01*
X99358058Y-76460007D01*
X99317417Y-76361870D01*
X99276535Y-76263258D01*
X99237366Y-76168881D01*
X99201866Y-76083449D01*
X99171992Y-76011672D01*
X99149698Y-75958257D01*
X99148215Y-75954713D01*
X99124446Y-75896660D01*
X99104801Y-75846240D01*
X99091174Y-75808498D01*
X99085463Y-75788478D01*
X99085400Y-75787553D01*
X99095106Y-75772435D01*
X99120784Y-75748030D01*
X99157272Y-75719138D01*
X99164775Y-75713699D01*
X99275563Y-75622135D01*
X99362364Y-75522688D01*
X99425538Y-75414707D01*
X99465446Y-75297542D01*
X99482450Y-75170541D01*
X99483160Y-75139550D01*
X99472578Y-75012535D01*
X99439408Y-74895836D01*
X99382826Y-74787388D01*
X99302010Y-74685131D01*
X99301377Y-74684453D01*
X99206425Y-74600505D01*
X99100542Y-74537843D01*
X98986851Y-74496597D01*
X98868475Y-74476895D01*
X98748536Y-74478866D01*
X98630157Y-74502638D01*
X98516460Y-74548340D01*
X98410569Y-74616101D01*
X98374580Y-74646260D01*
X98286196Y-74741468D01*
X98220755Y-74847542D01*
X98178439Y-74964071D01*
X98159431Y-75090645D01*
X98158300Y-75131869D01*
X98167355Y-75258752D01*
X98195459Y-75372511D01*
X98244017Y-75475790D01*
X98314438Y-75571228D01*
X98408126Y-75661470D01*
X98463388Y-75704913D01*
X98503429Y-75736539D01*
X98534054Y-75764426D01*
X98550477Y-75784061D01*
X98552000Y-75788490D01*
X98547292Y-75804088D01*
X98533917Y-75840288D01*
X98512999Y-75894256D01*
X98485659Y-75963155D01*
X98453021Y-76044151D01*
X98416207Y-76134408D01*
X98385254Y-76209563D01*
X98343958Y-76309483D01*
X98304057Y-76406158D01*
X98267029Y-76495996D01*
X98234352Y-76575405D01*
X98207506Y-76640794D01*
X98187968Y-76688569D01*
X98180081Y-76708000D01*
X98156060Y-76766664D01*
X98136971Y-76804105D01*
X98117597Y-76822385D01*
X98092721Y-76823565D01*
X98057127Y-76809706D01*
X98005596Y-76782871D01*
X97999214Y-76779473D01*
X97950373Y-76754337D01*
X97908932Y-76734567D01*
X97880603Y-76722809D01*
X97872276Y-76720700D01*
X97857473Y-76727590D01*
X97824956Y-76746912D01*
X97777899Y-76776641D01*
X97719472Y-76814752D01*
X97652849Y-76859219D01*
X97613645Y-76885800D01*
X97544318Y-76932808D01*
X97481957Y-76974608D01*
X97429619Y-77009190D01*
X97390365Y-77034542D01*
X97367252Y-77048655D01*
X97362483Y-77050900D01*
X97351354Y-77042312D01*
X97324851Y-77018178D01*
X97285532Y-76980940D01*
X97235954Y-76933041D01*
X97178675Y-76876923D01*
X97133597Y-76832299D01*
X97072482Y-76770672D01*
X97017896Y-76713955D01*
X96972322Y-76664866D01*
X96938240Y-76626120D01*
X96918132Y-76600434D01*
X96913699Y-76591619D01*
X96920670Y-76575174D01*
X96940204Y-76541231D01*
X96970240Y-76493057D01*
X97008714Y-76433919D01*
X97053562Y-76367084D01*
X97078427Y-76330794D01*
X97125678Y-76261671D01*
X97167668Y-76199019D01*
X97202341Y-76146007D01*
X97227641Y-76105804D01*
X97241512Y-76081579D01*
X97243527Y-76076326D01*
X97238991Y-76058281D01*
X97226271Y-76021444D01*
X97207204Y-75970364D01*
X97183629Y-75909590D01*
X97157383Y-75843668D01*
X97130305Y-75777147D01*
X97104232Y-75714575D01*
X97081002Y-75660500D01*
X97062453Y-75619470D01*
X97050424Y-75596033D01*
X97048157Y-75592891D01*
X97031451Y-75585928D01*
X96993493Y-75575538D01*
X96938068Y-75562580D01*
X96868961Y-75547916D01*
X96789955Y-75532405D01*
X96747463Y-75524518D01*
X96664930Y-75509082D01*
X96590392Y-75494363D01*
X96527627Y-75481170D01*
X96480412Y-75470312D01*
X96452525Y-75462598D01*
X96446975Y-75460146D01*
X96441447Y-75443562D01*
X96436980Y-75406184D01*
X96433563Y-75352192D01*
X96431185Y-75285765D01*
X96429836Y-75211085D01*
X96429505Y-75132331D01*
X96430182Y-75053682D01*
X96431856Y-74979319D01*
X96434518Y-74913422D01*
X96438156Y-74860170D01*
X96442760Y-74823744D01*
X96448320Y-74808323D01*
X96448606Y-74808184D01*
X96465628Y-74804033D01*
X96503910Y-74796021D01*
X96559735Y-74784884D01*
X96629380Y-74771357D01*
X96709127Y-74756176D01*
X96760921Y-74746458D01*
X96844493Y-74730498D01*
X96919730Y-74715429D01*
X96983026Y-74702033D01*
X97030774Y-74691087D01*
X97059368Y-74683372D01*
X97065899Y-74680550D01*
X97075510Y-74663903D01*
X97092424Y-74628441D01*
X97114692Y-74578818D01*
X97140362Y-74519688D01*
X97167484Y-74455704D01*
X97194107Y-74391521D01*
X97218281Y-74331791D01*
X97238054Y-74281168D01*
X97251475Y-74244306D01*
X97256595Y-74225858D01*
X97256600Y-74225631D01*
X97249654Y-74209140D01*
X97230177Y-74175089D01*
X97200206Y-74126722D01*
X97161781Y-74067283D01*
X97116941Y-74000018D01*
X97089844Y-73960224D01*
X97041954Y-73889831D01*
X96998872Y-73825393D01*
X96962729Y-73770186D01*
X96935654Y-73727487D01*
X96919776Y-73700571D01*
X96916590Y-73693689D01*
X96919378Y-73680868D01*
X96933577Y-73658905D01*
X96960629Y-73626154D01*
X97001977Y-73580969D01*
X97059063Y-73521706D01*
X97130834Y-73449214D01*
X97192493Y-73388098D01*
X97248800Y-73333463D01*
X97297127Y-73287763D01*
X97334847Y-73253453D01*
X97359332Y-73232987D01*
X97367384Y-73228200D01*
X97381877Y-73235150D01*
X97414099Y-73254668D01*
X97460972Y-73284754D01*
X97519416Y-73323410D01*
X97586355Y-73368636D01*
X97634220Y-73401479D01*
X97705399Y-73450287D01*
X97770355Y-73494212D01*
X97825951Y-73531182D01*
X97869047Y-73559124D01*
X97896505Y-73575965D01*
X97904509Y-73579985D01*
X97921778Y-73577004D01*
X97957718Y-73565822D01*
X98007663Y-73548276D01*
X98066950Y-73526202D01*
X98130916Y-73501434D01*
X98194898Y-73475808D01*
X98254232Y-73451162D01*
X98304254Y-73429329D01*
X98340300Y-73412147D01*
X98357493Y-73401667D01*
X98363907Y-73385535D01*
X98373971Y-73347980D01*
X98386877Y-73292590D01*
X98401817Y-73222948D01*
X98417986Y-73142640D01*
X98430343Y-73078044D01*
X98446575Y-72992363D01*
X98461634Y-72914858D01*
X98474804Y-72849063D01*
X98485366Y-72798515D01*
X98492603Y-72766751D01*
X98495424Y-72757369D01*
X98509811Y-72753977D01*
X98546489Y-72751010D01*
X98602352Y-72748582D01*
X98674294Y-72746806D01*
X98759208Y-72745794D01*
X98819721Y-72745600D01*
X98917434Y-72745645D01*
X98917434Y-72745645D01*
G37*
X98917434Y-72745645D02*
X98992793Y-72745956D01*
X99048845Y-72746800D01*
X99088638Y-72748438D01*
X99115217Y-72751138D01*
X99131630Y-72755162D01*
X99140924Y-72760776D01*
X99146145Y-72768244D01*
X99148779Y-72774175D01*
X99154476Y-72794608D01*
X99163787Y-72836063D01*
X99175897Y-72894551D01*
X99189990Y-72966082D01*
X99205253Y-73046666D01*
X99212863Y-73087982D01*
X99228263Y-73170769D01*
X99242763Y-73245735D01*
X99255583Y-73309068D01*
X99265938Y-73356956D01*
X99273047Y-73385587D01*
X99275168Y-73391541D01*
X99289098Y-73401010D01*
X99322094Y-73417841D01*
X99369589Y-73440087D01*
X99427018Y-73465796D01*
X99489814Y-73493021D01*
X99553411Y-73519813D01*
X99613244Y-73544222D01*
X99664745Y-73564299D01*
X99703350Y-73578096D01*
X99724492Y-73583663D01*
X99725335Y-73583694D01*
X99739315Y-73576754D01*
X99771159Y-73557297D01*
X99817855Y-73527280D01*
X99876396Y-73488659D01*
X99943771Y-73443393D01*
X99998820Y-73405894D01*
X100070862Y-73356906D01*
X100136329Y-73313089D01*
X100192217Y-73276398D01*
X100235519Y-73248787D01*
X100263230Y-73232213D01*
X100272006Y-73228200D01*
X100285604Y-73236956D01*
X100313576Y-73261200D01*
X100352921Y-73297889D01*
X100400637Y-73343982D01*
X100453723Y-73396439D01*
X100509177Y-73452219D01*
X100563999Y-73508280D01*
X100615186Y-73561583D01*
X100659739Y-73609085D01*
X100694655Y-73647746D01*
X100716932Y-73674526D01*
X100723700Y-73685858D01*
X100717874Y-73701985D01*
X100700027Y-73733928D01*
X100669601Y-73782543D01*
X100626038Y-73848685D01*
X100568781Y-73933210D01*
X100497274Y-74036974D01*
X100461996Y-74087734D01*
X100429255Y-74136351D01*
X100402832Y-74178643D01*
X100385741Y-74209585D01*
X100380800Y-74223125D01*
X100385603Y-74239290D01*
X100398737Y-74274162D01*
X100418286Y-74323203D01*
X100442336Y-74381877D01*
X100468972Y-74445649D01*
X100496279Y-74509981D01*
X100522341Y-74570338D01*
X100545245Y-74622184D01*
X100563076Y-74660982D01*
X100573917Y-74682196D01*
X100575553Y-74684487D01*
X100589390Y-74688589D01*
X100624662Y-74696540D01*
X100677820Y-74707611D01*
X100745314Y-74721074D01*
X100823597Y-74736202D01*
X100876506Y-74746195D01*
X100960519Y-74762066D01*
X101036703Y-74776730D01*
X101101334Y-74789447D01*
X101150685Y-74799478D01*
X101181030Y-74806084D01*
X101188579Y-74808102D01*
X101194157Y-74814295D01*
X101198479Y-74829865D01*
X101201690Y-74857498D01*
X101203933Y-74899879D01*
X101205353Y-74959695D01*
X101206094Y-75039632D01*
X101206299Y-75138295D01*
X101206181Y-75237636D01*
X101205695Y-75314513D01*
X101204643Y-75371858D01*
X101202827Y-75412607D01*
X101200051Y-75439695D01*
X101196115Y-75456055D01*
X101190824Y-75464622D01*
X101184075Y-75468302D01*
X101162063Y-75473413D01*
X101122100Y-75481457D01*
X101071258Y-75491034D01*
X101047550Y-75495321D01*
X100923801Y-75517681D01*
X100823073Y-75536531D01*
X100743298Y-75552335D01*
X100682409Y-75565557D01*
X100638339Y-75576661D01*
X100609020Y-75586110D01*
X100592385Y-75594369D01*
X100588009Y-75598416D01*
X100579299Y-75615233D01*
X100563362Y-75650782D01*
X100542022Y-75700589D01*
X100517098Y-75760178D01*
X100490411Y-75825074D01*
X100463782Y-75890802D01*
X100439034Y-75952887D01*
X100417985Y-76006853D01*
X100402458Y-76048224D01*
X100394274Y-76072527D01*
X100393464Y-76076526D01*
X100400376Y-76089384D01*
X100419738Y-76120038D01*
X100449520Y-76165412D01*
X100487690Y-76222432D01*
X100532219Y-76288026D01*
X100558600Y-76326520D01*
X100605945Y-76396370D01*
X100647988Y-76460297D01*
X100682672Y-76515018D01*
X100707942Y-76557248D01*
X100721740Y-76583704D01*
X100723700Y-76590169D01*
X100714866Y-76605936D01*
X100689770Y-76636928D01*
X100650515Y-76680828D01*
X100599210Y-76735319D01*
X100537957Y-76798083D01*
X100502686Y-76833408D01*
X100433690Y-76901797D01*
X100380215Y-76954081D01*
X100339900Y-76992192D01*
X100310384Y-77018064D01*
X100289305Y-77033629D01*
X100274303Y-77040821D01*
X100263016Y-77041572D01*
X100253084Y-77037817D01*
X100253038Y-77037792D01*
X100234193Y-77026148D01*
X100198068Y-77002462D01*
X100148264Y-76969149D01*
X100088386Y-76928622D01*
X100022038Y-76883298D01*
X100004983Y-76871583D01*
X99938693Y-76826504D01*
X99878898Y-76786798D01*
X99828937Y-76754603D01*
X99792146Y-76732060D01*
X99771865Y-76721307D01*
X99769542Y-76720700D01*
X99752001Y-76726249D01*
X99717705Y-76741191D01*
X99672310Y-76762967D01*
X99640429Y-76779109D01*
X99589464Y-76803833D01*
X99548639Y-76820544D01*
X99522612Y-76827470D01*
X99516212Y-76826392D01*
X99508727Y-76812253D01*
X99492899Y-76777593D01*
X99470015Y-76725395D01*
X99441363Y-76658639D01*
X99408229Y-76580309D01*
X99371901Y-76493387D01*
X99358058Y-76460007D01*
X99317417Y-76361870D01*
X99276535Y-76263258D01*
X99237366Y-76168881D01*
X99201866Y-76083449D01*
X99171992Y-76011672D01*
X99149698Y-75958257D01*
X99148215Y-75954713D01*
X99124446Y-75896660D01*
X99104801Y-75846240D01*
X99091174Y-75808498D01*
X99085463Y-75788478D01*
X99085400Y-75787553D01*
X99095106Y-75772435D01*
X99120784Y-75748030D01*
X99157272Y-75719138D01*
X99164775Y-75713699D01*
X99275563Y-75622135D01*
X99362364Y-75522688D01*
X99425538Y-75414707D01*
X99465446Y-75297542D01*
X99482450Y-75170541D01*
X99483160Y-75139550D01*
X99472578Y-75012535D01*
X99439408Y-74895836D01*
X99382826Y-74787388D01*
X99302010Y-74685131D01*
X99301377Y-74684453D01*
X99206425Y-74600505D01*
X99100542Y-74537843D01*
X98986851Y-74496597D01*
X98868475Y-74476895D01*
X98748536Y-74478866D01*
X98630157Y-74502638D01*
X98516460Y-74548340D01*
X98410569Y-74616101D01*
X98374580Y-74646260D01*
X98286196Y-74741468D01*
X98220755Y-74847542D01*
X98178439Y-74964071D01*
X98159431Y-75090645D01*
X98158300Y-75131869D01*
X98167355Y-75258752D01*
X98195459Y-75372511D01*
X98244017Y-75475790D01*
X98314438Y-75571228D01*
X98408126Y-75661470D01*
X98463388Y-75704913D01*
X98503429Y-75736539D01*
X98534054Y-75764426D01*
X98550477Y-75784061D01*
X98552000Y-75788490D01*
X98547292Y-75804088D01*
X98533917Y-75840288D01*
X98512999Y-75894256D01*
X98485659Y-75963155D01*
X98453021Y-76044151D01*
X98416207Y-76134408D01*
X98385254Y-76209563D01*
X98343958Y-76309483D01*
X98304057Y-76406158D01*
X98267029Y-76495996D01*
X98234352Y-76575405D01*
X98207506Y-76640794D01*
X98187968Y-76688569D01*
X98180081Y-76708000D01*
X98156060Y-76766664D01*
X98136971Y-76804105D01*
X98117597Y-76822385D01*
X98092721Y-76823565D01*
X98057127Y-76809706D01*
X98005596Y-76782871D01*
X97999214Y-76779473D01*
X97950373Y-76754337D01*
X97908932Y-76734567D01*
X97880603Y-76722809D01*
X97872276Y-76720700D01*
X97857473Y-76727590D01*
X97824956Y-76746912D01*
X97777899Y-76776641D01*
X97719472Y-76814752D01*
X97652849Y-76859219D01*
X97613645Y-76885800D01*
X97544318Y-76932808D01*
X97481957Y-76974608D01*
X97429619Y-77009190D01*
X97390365Y-77034542D01*
X97367252Y-77048655D01*
X97362483Y-77050900D01*
X97351354Y-77042312D01*
X97324851Y-77018178D01*
X97285532Y-76980940D01*
X97235954Y-76933041D01*
X97178675Y-76876923D01*
X97133597Y-76832299D01*
X97072482Y-76770672D01*
X97017896Y-76713955D01*
X96972322Y-76664866D01*
X96938240Y-76626120D01*
X96918132Y-76600434D01*
X96913699Y-76591619D01*
X96920670Y-76575174D01*
X96940204Y-76541231D01*
X96970240Y-76493057D01*
X97008714Y-76433919D01*
X97053562Y-76367084D01*
X97078427Y-76330794D01*
X97125678Y-76261671D01*
X97167668Y-76199019D01*
X97202341Y-76146007D01*
X97227641Y-76105804D01*
X97241512Y-76081579D01*
X97243527Y-76076326D01*
X97238991Y-76058281D01*
X97226271Y-76021444D01*
X97207204Y-75970364D01*
X97183629Y-75909590D01*
X97157383Y-75843668D01*
X97130305Y-75777147D01*
X97104232Y-75714575D01*
X97081002Y-75660500D01*
X97062453Y-75619470D01*
X97050424Y-75596033D01*
X97048157Y-75592891D01*
X97031451Y-75585928D01*
X96993493Y-75575538D01*
X96938068Y-75562580D01*
X96868961Y-75547916D01*
X96789955Y-75532405D01*
X96747463Y-75524518D01*
X96664930Y-75509082D01*
X96590392Y-75494363D01*
X96527627Y-75481170D01*
X96480412Y-75470312D01*
X96452525Y-75462598D01*
X96446975Y-75460146D01*
X96441447Y-75443562D01*
X96436980Y-75406184D01*
X96433563Y-75352192D01*
X96431185Y-75285765D01*
X96429836Y-75211085D01*
X96429505Y-75132331D01*
X96430182Y-75053682D01*
X96431856Y-74979319D01*
X96434518Y-74913422D01*
X96438156Y-74860170D01*
X96442760Y-74823744D01*
X96448320Y-74808323D01*
X96448606Y-74808184D01*
X96465628Y-74804033D01*
X96503910Y-74796021D01*
X96559735Y-74784884D01*
X96629380Y-74771357D01*
X96709127Y-74756176D01*
X96760921Y-74746458D01*
X96844493Y-74730498D01*
X96919730Y-74715429D01*
X96983026Y-74702033D01*
X97030774Y-74691087D01*
X97059368Y-74683372D01*
X97065899Y-74680550D01*
X97075510Y-74663903D01*
X97092424Y-74628441D01*
X97114692Y-74578818D01*
X97140362Y-74519688D01*
X97167484Y-74455704D01*
X97194107Y-74391521D01*
X97218281Y-74331791D01*
X97238054Y-74281168D01*
X97251475Y-74244306D01*
X97256595Y-74225858D01*
X97256600Y-74225631D01*
X97249654Y-74209140D01*
X97230177Y-74175089D01*
X97200206Y-74126722D01*
X97161781Y-74067283D01*
X97116941Y-74000018D01*
X97089844Y-73960224D01*
X97041954Y-73889831D01*
X96998872Y-73825393D01*
X96962729Y-73770186D01*
X96935654Y-73727487D01*
X96919776Y-73700571D01*
X96916590Y-73693689D01*
X96919378Y-73680868D01*
X96933577Y-73658905D01*
X96960629Y-73626154D01*
X97001977Y-73580969D01*
X97059063Y-73521706D01*
X97130834Y-73449214D01*
X97192493Y-73388098D01*
X97248800Y-73333463D01*
X97297127Y-73287763D01*
X97334847Y-73253453D01*
X97359332Y-73232987D01*
X97367384Y-73228200D01*
X97381877Y-73235150D01*
X97414099Y-73254668D01*
X97460972Y-73284754D01*
X97519416Y-73323410D01*
X97586355Y-73368636D01*
X97634220Y-73401479D01*
X97705399Y-73450287D01*
X97770355Y-73494212D01*
X97825951Y-73531182D01*
X97869047Y-73559124D01*
X97896505Y-73575965D01*
X97904509Y-73579985D01*
X97921778Y-73577004D01*
X97957718Y-73565822D01*
X98007663Y-73548276D01*
X98066950Y-73526202D01*
X98130916Y-73501434D01*
X98194898Y-73475808D01*
X98254232Y-73451162D01*
X98304254Y-73429329D01*
X98340300Y-73412147D01*
X98357493Y-73401667D01*
X98363907Y-73385535D01*
X98373971Y-73347980D01*
X98386877Y-73292590D01*
X98401817Y-73222948D01*
X98417986Y-73142640D01*
X98430343Y-73078044D01*
X98446575Y-72992363D01*
X98461634Y-72914858D01*
X98474804Y-72849063D01*
X98485366Y-72798515D01*
X98492603Y-72766751D01*
X98495424Y-72757369D01*
X98509811Y-72753977D01*
X98546489Y-72751010D01*
X98602352Y-72748582D01*
X98674294Y-72746806D01*
X98759208Y-72745794D01*
X98819721Y-72745600D01*
X98917434Y-72745645D01*
D11*
X86360000Y-73660000D03*
D12*
X88900000Y-73660000D03*
X86360000Y-76200000D03*
X88900000Y-76200000D03*
D13*
X81280000Y-81280000D03*
X83820000Y-81280000D03*
X86360000Y-81280000D03*
X88900000Y-81280000D03*
X91440000Y-81280000D03*
X93980000Y-81280000D03*
X96520000Y-81280000D03*
X99060000Y-81280000D03*
D14*
X101600000Y-81280000D03*
D15*
X93980000Y-81280000D02*
X90800000Y-78100000D01*
X90800000Y-75560000D02*
X88900000Y-73660000D01*
X90800000Y-78100000D02*
X90800000Y-75560000D01*
X96520000Y-81280000D02*
X95250000Y-82550000D01*
X95250000Y-82550000D02*
X90678000Y-82550000D01*
X90678000Y-82550000D02*
X90170000Y-82042000D01*
X90170000Y-82042000D02*
X90170000Y-77470000D01*
X90170000Y-77470000D02*
X88900000Y-76200000D01*
X86360000Y-81280000D02*
X86360000Y-76200000D01*
X88900000Y-81280000D02*
X87630000Y-82550000D01*
X87630000Y-82550000D02*
X85598000Y-82550000D01*
X85598000Y-82550000D02*
X85090000Y-82042000D01*
X85090000Y-82042000D02*
X85090000Y-74168000D01*
X85090000Y-74168000D02*
X85598000Y-73660000D01*
X85598000Y-73660000D02*
X86360000Y-73660000D01*
M02*
